<svg width="261" height="62" viewBox="0 0 261 62" fill="none" xmlns="http://www.w3.org/2000/svg">
<path d="M77.8522 59.0317C78.3198 58.681 78.6413 58.2134 78.8166 57.5413L80.044 57.8043C79.8394 58.7103 79.3718 59.4408 78.6705 59.9376C77.9691 60.4344 77.1508 60.7267 76.2157 60.7267C75.076 60.7267 74.1116 60.3176 73.2933 59.5285C72.5043 58.7395 72.0952 57.7751 72.0952 56.6062C72.0952 55.4664 72.5043 54.502 73.2933 53.6838C74.0824 52.8948 75.0467 52.4856 76.2157 52.4856C77.1508 52.4856 77.9691 52.7486 78.6705 53.2454C79.3718 53.7422 79.8394 54.4436 80.044 55.2911L78.8166 55.6418C78.6413 54.9989 78.3198 54.5021 77.8522 54.1514C77.3846 53.8007 76.8294 53.6546 76.2157 53.6546C75.4266 53.6546 74.7545 53.9468 74.1993 54.5021C73.644 55.0573 73.381 55.7587 73.381 56.5769C73.381 57.3952 73.644 58.0966 74.1993 58.6518C74.7545 59.2071 75.4266 59.4993 76.2157 59.4993C76.8294 59.5285 77.3846 59.3532 77.8522 59.0317Z" fill="#0B777D"/>
<path d="M87.8759 60.5513L87.0868 58.7103H83.2585L82.4695 60.5513H81.096L84.5736 52.661H85.7425L89.2201 60.5513H87.8759ZM85.1873 54.2098L83.7553 57.5705H86.59L85.1873 54.2098Z" fill="#0B777D"/>
<path d="M96.1461 60.5513L93.3407 57.3952H92.2009V60.5513H90.9443V52.661H94.6557C95.474 52.661 96.1169 52.8655 96.6137 53.3039C97.1105 53.7422 97.3735 54.3267 97.3735 55.0281C97.3735 55.7002 97.1397 56.2555 96.7014 56.6938C96.263 57.1322 95.6493 57.366 94.8895 57.3952L97.7242 60.5513H96.1461ZM94.6557 56.2847C95.0941 56.2847 95.4448 56.1678 95.7078 55.9632C95.9708 55.7295 96.1169 55.4372 96.1169 55.0865C96.1169 54.7066 95.9708 54.4144 95.7078 54.1806C95.4448 53.9468 95.0941 53.8299 94.6557 53.8299H92.2009V56.2847H94.6557V56.2847Z" fill="#0B777D"/>
<path d="M102.575 53.8299V60.5806H101.319V53.8299H98.5425V52.6902H105.352V53.8299H102.575Z" fill="#0B777D"/>
<path d="M112.424 60.5513L111.635 58.7103H107.836L107.047 60.5513H105.673L109.151 52.661H110.32L113.797 60.5513H112.424ZM109.735 54.2098L108.303 57.5705H111.138L109.735 54.2098Z" fill="#0B777D"/>
<path d="M120.168 53.0993C120.723 53.5085 121.045 54.0345 121.191 54.7358L119.934 54.9989C119.876 54.5897 119.671 54.239 119.32 54.0053C118.999 53.7422 118.59 53.6253 118.122 53.6253C117.655 53.6253 117.275 53.7422 117.012 53.9468C116.72 54.1806 116.573 54.4728 116.573 54.8235C116.573 55.0865 116.661 55.3203 116.807 55.4664C116.983 55.6126 117.216 55.7294 117.567 55.8171L119.262 56.1678C120.606 56.46 121.278 57.1906 121.278 58.3304C121.278 59.0609 121.015 59.6454 120.46 60.0838C119.905 60.5221 119.174 60.7267 118.268 60.7267C117.392 60.7267 116.661 60.5221 116.047 60.113C115.434 59.7039 115.083 59.1194 114.995 58.3888L116.34 58.0966C116.427 58.5934 116.661 58.9733 117.012 59.2071C117.363 59.4701 117.83 59.587 118.356 59.587C118.882 59.587 119.291 59.4701 119.584 59.2655C119.876 59.0317 120.022 58.7395 120.022 58.3888C120.022 58.0966 119.934 57.8628 119.759 57.7167C119.583 57.5705 119.291 57.4244 118.911 57.366L117.187 57.0153C115.872 56.7231 115.2 55.9925 115.2 54.882C115.2 54.1806 115.463 53.6253 115.989 53.187C116.515 52.7486 117.216 52.5441 118.093 52.5441C118.941 52.5149 119.613 52.7194 120.168 53.0993Z" fill="#0B777D"/>
<path d="M132.588 59.0317C133.056 58.681 133.377 58.2135 133.552 57.5413L134.78 57.8043C134.575 58.7103 134.108 59.4408 133.406 59.9377C132.705 60.4345 131.887 60.7267 130.951 60.7267C129.812 60.7267 128.847 60.3176 128.029 59.5285C127.24 58.7395 126.831 57.7751 126.831 56.6062C126.831 55.4664 127.24 54.5021 128.029 53.6838C128.818 52.8948 129.783 52.4856 130.951 52.4856C131.887 52.4856 132.705 52.7486 133.406 53.2454C134.108 53.7422 134.575 54.4436 134.78 55.2911L133.552 55.6418C133.377 54.9989 133.056 54.5021 132.588 54.1514C132.12 53.8007 131.565 53.6546 130.951 53.6546C130.162 53.6546 129.49 53.9468 128.935 54.5021C128.38 55.0573 128.117 55.7587 128.117 56.5769C128.117 57.3952 128.38 58.0966 128.935 58.6518C129.49 59.2071 130.162 59.4993 130.951 59.4993C131.565 59.5285 132.12 59.3532 132.588 59.0317Z" fill="#0B777D"/>
<path d="M143.635 53.713C144.424 54.5021 144.833 55.4957 144.833 56.6354C144.833 57.7751 144.424 58.7395 143.635 59.5285C142.845 60.3176 141.852 60.7267 140.712 60.7267C139.572 60.7267 138.579 60.3176 137.79 59.5285C137.001 58.7395 136.592 57.7751 136.592 56.6354C136.592 55.4957 137.001 54.5021 137.79 53.713C138.579 52.924 139.543 52.5149 140.712 52.5149C141.881 52.5149 142.816 52.8948 143.635 53.713ZM142.729 58.7103C143.284 58.155 143.547 57.4536 143.547 56.6354C143.547 55.8171 143.284 55.1158 142.729 54.5605C142.173 54.0053 141.501 53.713 140.712 53.713C139.923 53.713 139.251 54.0053 138.696 54.5605C138.14 55.1158 137.877 55.8171 137.877 56.6354C137.877 57.4536 138.14 58.155 138.696 58.7103C139.251 59.2655 139.923 59.5577 140.712 59.5577C141.501 59.5285 142.173 59.2655 142.729 58.7103Z" fill="#0B777D"/>
<path d="M154.097 60.5513H153.015L148.252 54.882V60.5513H146.995V52.661H148.077L152.84 58.418V52.661H154.097V60.5513Z" fill="#0B777D"/>
<path d="M160.058 53.8299V60.5806H158.802V53.8299H156.025V52.6902H162.834V53.8299H160.058Z" fill="#0B777D"/>
<path d="M170.608 60.5513H164.734V52.661H170.608V53.8007H165.991V56.0217H170.228V57.1614H165.991V59.4116H170.608V60.5513Z" fill="#0B777D"/>
<path d="M181.567 60.5513H180.339V55.5249L177.622 60.5513H176.833L174.115 55.5249V60.5513H172.887V52.661H173.998L177.212 58.6226L180.427 52.661H181.508V60.5513H181.567Z" fill="#0B777D"/>
<path d="M187.675 52.661C188.551 52.661 189.223 52.8948 189.749 53.3623C190.275 53.8299 190.509 54.4436 190.509 55.2034C190.509 55.9632 190.246 56.6062 189.749 57.0737C189.253 57.5413 188.551 57.7751 187.675 57.7751H185.366V60.5513H184.109V52.661H187.675V52.661ZM187.675 56.6354C188.171 56.6354 188.551 56.5185 188.814 56.2555C189.106 55.9925 189.223 55.671 189.223 55.2327C189.223 54.8235 189.077 54.4728 188.814 54.2098C188.522 53.9468 188.142 53.8299 187.675 53.8299H185.366V56.6354H187.675V56.6354Z" fill="#0B777D"/>
<path d="M198.137 60.5513H192.584V52.661H193.841V59.4116H198.137V60.5513Z" fill="#0B777D"/>
<path d="M206.115 60.5513L205.326 58.7103H201.497L200.708 60.5513H199.335L202.812 52.661H203.981L207.459 60.5513H206.115ZM203.397 54.2098L201.965 57.5705H204.8L203.397 54.2098Z" fill="#0B777D"/>
<path d="M211.93 52.661C213.245 52.661 214.326 53.0409 215.115 53.7715C215.905 54.5021 216.284 55.4664 216.284 56.6062C216.284 57.7459 215.905 58.7103 215.115 59.4409C214.326 60.1714 213.274 60.5513 211.93 60.5513H209.183V52.661H211.93ZM211.93 59.4116C212.865 59.4116 213.625 59.1486 214.18 58.6226C214.736 58.0966 215.028 57.4244 215.028 56.6062C215.028 55.7879 214.736 55.0865 214.18 54.5897C213.625 54.0637 212.865 53.8007 211.93 53.8007H210.411V59.4116H211.93Z" fill="#0B777D"/>
<path d="M224.116 60.5513L223.327 58.7103H219.499L218.71 60.5513H217.337L220.814 52.661H221.983L225.461 60.5513H224.116ZM221.428 54.2098L219.996 57.5705H222.831L221.428 54.2098Z" fill="#0B777D"/>
<path d="M231.861 53.0993C232.416 53.5085 232.737 54.0345 232.883 54.7358L231.627 54.9989C231.568 54.5897 231.364 54.239 231.013 54.0053C230.692 53.7422 230.283 53.6253 229.815 53.6253C229.347 53.6253 228.968 53.7422 228.704 53.9468C228.441 54.1514 228.266 54.4728 228.266 54.8235C228.266 55.0865 228.354 55.3203 228.5 55.4664C228.675 55.6126 228.909 55.7294 229.26 55.8171L230.955 56.1678C232.299 56.46 232.971 57.1906 232.971 58.3304C232.971 59.0609 232.708 59.6454 232.153 60.0838C231.598 60.5221 230.867 60.7267 229.961 60.7267C229.084 60.7267 228.354 60.5221 227.74 60.113C227.126 59.7039 226.776 59.1194 226.688 58.3888L228.032 58.0966C228.12 58.5934 228.354 58.9733 228.704 59.2071C229.055 59.4701 229.523 59.587 230.049 59.587C230.575 59.587 230.984 59.4701 231.276 59.2655C231.568 59.0317 231.715 58.7395 231.715 58.3888C231.715 58.0966 231.627 57.8628 231.452 57.7167C231.276 57.5705 230.984 57.4244 230.604 57.366L228.88 57.0153C227.565 56.7231 226.893 55.9925 226.893 54.882C226.893 54.1806 227.156 53.6253 227.682 53.187C228.208 52.7486 228.909 52.5441 229.786 52.5441C230.633 52.5149 231.305 52.7194 231.861 53.0993Z" fill="#0B777D"/>
<path d="M31.9711 37.5242C32.1172 35.3909 31.3574 33.8421 29.9254 32.3516C29.0779 31.4749 27.8798 30.6859 29.2825 29.3124C30.6268 27.9973 31.4451 28.9617 32.3802 29.8676C37.056 34.5726 41.761 39.2776 46.466 43.9534C50.3527 47.8109 55.2039 48.1032 58.5938 44.7425C62.0714 41.2941 61.9253 36.6183 57.9801 32.6731C56.3436 31.0658 56.2559 30.1014 57.9509 28.4357C61.8961 24.5489 62.0714 19.7563 58.623 16.3663C55.1746 12.9472 50.382 13.2102 46.4952 17.0677C43.3975 20.1654 40.329 23.2631 37.2606 26.3608C36.3546 27.2667 35.5656 28.3188 34.2213 26.8868C32.9062 25.5133 33.9291 24.6951 34.835 23.7891C38.1373 20.4869 41.498 17.243 44.7126 13.8823C47.9272 10.5216 47.8395 5.58281 44.6541 2.42666C41.5857 -0.6126 36.6176 -0.846389 33.4907 2.42666C31.2113 4.82299 29.867 4.73532 27.6168 2.39743C24.4606 -0.875613 19.551 -0.6126 16.4533 2.45588C13.268 5.61203 13.2095 10.5216 16.4241 13.9115C19.2296 16.8339 22.1519 19.6394 24.9866 22.5033C25.8341 23.38 26.5355 24.1106 27.7921 22.9124C29.0195 21.7142 28.3474 21.0129 27.4706 20.1362C24.8113 17.506 22.1519 14.8759 19.551 12.1873C17.0086 9.58645 16.804 6.86865 18.8789 4.85222C20.8953 2.89423 23.5255 3.15725 26.0387 5.52436C30.5391 9.76179 30.5391 9.76179 35.1565 5.40747C37.582 3.0988 40.3583 2.92346 42.3162 4.96911C44.2158 6.92709 44.0989 9.61567 41.8779 11.8659C37.0852 16.7462 32.1464 21.5097 27.383 26.4193C26.0387 27.822 25.162 27.7051 23.8469 26.3608C20.6323 22.9709 17.33 19.6686 13.9401 16.454C10.4625 13.1517 5.66982 13.2102 2.48444 16.3955C-0.730158 19.6101 -0.934724 24.4905 2.51366 27.7928C4.85155 29.9845 4.76388 31.2411 2.51366 33.4329C-0.934724 36.7352 -0.730158 41.6448 2.51366 44.8009C5.66982 47.8986 10.6086 47.8694 13.9693 44.6548C16.8332 41.937 19.551 39.0731 22.3565 36.2968C23.2332 35.4201 24.3145 34.6895 22.8241 33.2868C21.3045 31.8548 20.6323 33.1699 19.8141 33.9882C17.0086 36.7644 14.2616 39.5991 11.3976 42.3169C9.7319 43.895 7.74469 44.2457 5.69904 42.9306C3.7995 41.7032 3.3027 39.8913 3.74106 37.758C4.00407 36.4722 4.96845 35.6247 5.84516 34.748C10.3456 30.1307 10.6963 31.2704 5.75749 26.2731C3.24426 23.7307 2.9228 20.9252 4.85155 18.9088C6.83876 16.8631 9.70268 17.1261 12.2159 19.6101C17.1547 24.5197 22.0058 29.4877 27.0031 34.3389L31.9711 37.5242ZM56.0221 42.4338C54.181 44.1288 51.9308 44.3041 50.119 42.6091C46.3199 39.1023 42.7546 35.3325 39.0724 31.6795C38.2542 30.8612 38.3711 30.1014 39.1893 29.3124C42.7838 25.7471 46.3199 22.0942 50.0021 18.5873C51.3756 17.2723 53.2167 17.2138 54.9409 17.9736C56.7235 18.7627 57.5125 20.2823 57.5125 22.4741C57.6294 24.7827 55.5838 25.9517 54.0934 27.5005C51.1126 30.5982 51.0833 30.569 54.0641 33.5498C54.9409 34.4265 55.9052 35.2448 56.6066 36.2676C58.0386 38.4009 57.9509 40.6219 56.0221 42.4338Z" fill="#0B777D"/>
<path d="M27.0323 34.3378C31.825 39.2473 37.056 44.4784 41.8779 49.3587C44.1281 51.6381 44.2158 54.3267 42.3163 56.2555C40.3583 58.2719 37.582 58.1258 35.1565 55.8171C30.5391 51.4336 30.5391 51.4336 26.0387 55.7002C23.5255 58.0966 20.8953 58.3304 18.8789 56.3724C16.7748 54.3559 17.0086 51.6381 19.5511 49.0372C22.152 46.3487 24.8113 43.7185 27.4707 41.0884C28.3474 40.2117 29.0195 39.5103 27.7921 38.3122C26.5647 37.114 25.8341 37.8446 24.9866 38.7213C22.152 41.5852 19.2004 44.3907 16.4241 47.313C13.2095 50.6738 13.268 55.6126 16.4533 58.7687C19.5511 61.8372 24.4606 62.1002 27.6168 58.8272C29.867 56.4893 31.2113 56.4016 33.4907 58.7979C36.6177 62.071 41.5857 61.8372 44.6542 58.7979C47.8395 55.6418 47.9272 50.703 44.7126 47.3423C41.498 43.9816 33.5199 35.9158 30.2177 32.6136" fill="#0B777D"/>
<path d="M105.556 14.5826L106.17 8.24106H105.878L103.569 14.0273L92.5517 33.1396H91.032L79.3718 13.9689L77.18 8.21184H76.8878L77.7353 14.4949V42.988H73.0303V0.672145H76.7709L90.0092 22.3269L91.9964 27.0319H92.1133L93.9836 22.1807L106.637 0.642921H110.583V42.988H105.556V14.5826Z" fill="#3F3E3E"/>
<path d="M145.154 0.672142H150.005V28.9022C150.005 31.4446 149.684 33.6364 149.012 35.5067C148.34 37.3478 147.404 38.8966 146.177 40.0656C144.95 41.2638 143.459 42.1405 141.735 42.6957C140.011 43.251 138.082 43.5432 135.978 43.5432C130.981 43.5432 127.211 42.4035 124.668 40.1533C122.126 37.903 120.869 34.4546 120.869 29.8665V0.672142H125.896V27.5287C125.896 29.662 126.1 31.4738 126.539 32.935C126.948 34.3962 127.591 35.5944 128.438 36.5003C129.286 37.4062 130.338 38.0492 131.624 38.4583C132.88 38.8674 134.371 39.072 136.066 39.072C139.339 39.072 141.677 38.1661 143.079 36.3834C144.482 34.6008 145.183 31.6492 145.183 27.5287V0.672142H145.154Z" fill="#3F3E3E"/>
<path d="M167.919 15.3132L164.646 9.20544H164.413L165.026 15.3132V43.0172H160.321V0H162.981L183.233 28.23L186.389 34.0455H186.681L186.009 28.23V0.672143H190.714V43.6601H188.054L167.919 15.3132Z" fill="#3F3E3E"/>
<path d="M221.077 31.2693H205.559L201.351 42.988H196.325L212.368 0H214.677L230.75 42.988H225.431L221.077 31.2693ZM207.196 26.915H219.587L214.882 14.0273L213.391 7.62737H213.333L211.842 14.1735L207.196 26.915Z" fill="#3F3E3E"/>
<path d="M241.563 26.1844L227.594 0.672142H233.468L243.375 19.1707L244.427 22.8529H244.485L245.596 19.0538L255.123 0.672142H260.441L246.589 26.1259V42.988H241.563V26.1844Z" fill="#3F3E3E"/>
</svg>
